<?xml version="1.0" standalone="no"?>
<!DOCTYPE svg PUBLIC "-//W3C//DTD SVG 20010904//EN"
 "http://www.w3.org/TR/2001/REC-SVG-20010904/DTD/svg10.dtd">
<svg version="1.0" xmlns="http://www.w3.org/2000/svg"
 width="768.000000pt" height="768.000000pt" viewBox="0 0 768.000000 768.000000"
 preserveAspectRatio="xMidYMid meet">
<metadata>
Created by potrace 1.14, written by Peter Selinger 2001-2017
</metadata>
<g transform="translate(0.000000,768.000000) scale(0.100000,-0.100000)"
fill="#000000" stroke="none">
<path d="M3544 5852 c-12 -20 -20 -46 -18 -57 2 -11 -4 -31 -13 -45 -15 -23
-15 -24 0 -11 15 12 17 11 15 -10 -2 -13 -7 -27 -13 -31 -6 -5 -5 -8 3 -8 8 0
10 -5 5 -12 -11 -19 -12 -37 -2 -44 5 -3 9 -10 9 -15 0 -6 -5 -7 -12 -3 -7 5
-8 3 -2 -7 12 -20 12 -99 0 -99 -7 0 -8 -3 -1 -8 14 -10 15 -52 1 -52 -6 0 -6
-4 2 -9 8 -4 14 -12 14 -16 0 -4 -6 -12 -14 -16 -11 -7 -11 -9 1 -9 10 0 11
-3 2 -13 -6 -8 -8 -17 -4 -21 12 -11 10 -96 -1 -96 -7 0 -8 -3 -1 -8 16 -11
19 -46 3 -36 -9 6 -9 3 1 -10 13 -15 13 -19 0 -27 -8 -5 -9 -9 -3 -9 7 0 11
-23 10 -66 -1 -36 2 -68 7 -71 5 -3 3 -9 -4 -14 -12 -7 -12 -9 0 -9 8 0 20 -8
28 -17 8 -11 11 -12 7 -3 -7 13 -5 13 9 2 24 -20 108 -13 130 11 20 23 19 17
18 172 -1 66 -1 136 0 155 1 19 1 73 0 120 -1 47 -1 99 0 115 2 53 1 240 -1
248 -2 4 -3 13 -4 20 -1 6 -8 11 -15 9 -7 -1 -10 2 -6 8 12 19 -64 33 -102 19
-12 -4 -23 -4 -25 1 -2 5 -13 -7 -24 -28z"/>
<path d="M3226 5618 c3 -5 -5 -6 -18 -3 -30 8 -90 -46 -90 -81 0 -13 -5 -24
-10 -24 -5 0 -6 -5 -3 -10 4 -6 9 -22 11 -37 7 -35 13 -45 26 -37 7 4 8 2 4
-4 -4 -6 1 -19 11 -29 25 -25 139 -26 157 -1 7 10 15 15 18 12 3 -2 8 2 11 11
4 8 1 15 -6 15 -7 1 -2 6 9 13 16 9 19 17 14 32 -4 11 -4 30 1 42 6 15 4 23
-7 27 -9 3 -14 11 -12 18 7 20 -38 56 -66 53 -14 -2 -26 0 -26 4 0 4 -7 8 -15
8 -8 0 -12 -4 -9 -9z"/>
<path d="M3945 5610 c-3 -11 -10 -18 -15 -15 -14 9 -18 -18 -16 -133 0 -62 -3
-112 -7 -112 -5 0 -5 -5 -1 -11 3 -6 6 -67 6 -135 0 -68 4 -121 9 -118 5 3 9
-2 9 -10 0 -9 5 -16 11 -16 5 0 7 -4 4 -10 -3 -5 1 -10 9 -10 8 0 18 -5 22
-12 5 -7 2 -8 -7 -3 -8 5 -11 4 -6 -1 5 -5 17 -10 28 -10 37 -3 40 -4 34 -14
-4 -6 1 -7 11 -3 13 5 15 3 9 -7 -5 -9 -4 -11 4 -6 16 10 94 12 109 2 7 -4 12
-4 12 1 0 9 167 10 175 1 3 -3 22 -2 41 2 19 5 37 4 40 -1 3 -5 10 -7 15 -3
12 7 487 9 495 2 10 -10 11 -118 1 -118 -6 0 -6 -5 0 -12 5 -7 9 -71 8 -141
-2 -107 1 -131 15 -147 10 -11 23 -20 29 -20 7 0 10 -4 7 -8 -3 -5 21 -8 52
-7 37 1 56 6 55 13 -2 7 4 12 12 12 17 0 17 -1 21 70 1 30 3 55 4 55 1 0 3 10
4 23 2 12 -1 22 -6 22 -5 0 -4 9 2 20 8 14 8 20 0 20 -8 0 -8 6 0 20 8 14 8
20 0 20 -8 0 -8 6 0 20 7 13 7 20 1 20 -7 0 -7 9 -1 26 7 18 7 23 -1 18 -8 -4
-8 0 0 15 8 14 8 21 1 21 -8 0 -8 6 0 20 6 11 7 20 3 20 -7 0 -9 64 -3 80 2 3
1 10 0 15 -1 6 -2 22 -2 38 0 15 -3 27 -8 27 -4 0 -17 15 -29 33 -11 17 -23
31 -26 30 -13 -7 -36 -2 -31 6 4 5 -172 9 -431 10 -241 0 -454 0 -473 0 l-35
1 0 189 c0 104 -2 188 -6 185 -8 -5 -31 21 -24 27 2 3 -19 5 -48 4 -28 -1 -57
3 -64 7 -7 6 -14 2 -18 -12z"/>
<path d="M4350 5609 c0 -4 -12 -15 -27 -23 -16 -8 -23 -15 -18 -16 6 0 -1 -10
-15 -21 -14 -11 -18 -17 -10 -13 13 7 13 5 1 -9 -7 -9 -11 -17 -8 -17 3 0 2
-13 -3 -29 -7 -24 -5 -29 6 -24 9 3 14 -2 14 -15 0 -31 42 -72 68 -67 12 2 25
-1 28 -7 5 -7 2 -8 -6 -3 -9 5 -11 4 -6 -4 6 -9 11 -9 24 1 12 10 14 10 8 1
-4 -7 -3 -13 3 -13 5 0 13 5 16 10 4 6 11 8 16 5 5 -4 9 0 9 7 0 9 3 9 10 -2
7 -12 10 -12 10 -1 0 8 6 11 16 7 14 -5 15 -4 4 9 -10 12 -10 15 2 15 8 0 19
10 25 23 27 57 32 76 22 82 -5 4 -7 10 -4 15 3 4 -13 27 -36 51 -37 39 -46 43
-95 45 -30 1 -54 -2 -54 -7z"/>
<path d="M3172 5224 c-4 -6 -17 -17 -30 -23 -14 -8 -21 -18 -18 -27 3 -8 1
-14 -3 -14 -5 0 -7 -10 -3 -22 4 -16 2 -19 -8 -13 -8 5 -11 4 -6 -3 3 -5 3
-12 -1 -15 -5 -2 -2 -2 4 -1 8 2 11 -7 9 -26 -2 -18 2 -31 10 -34 8 -3 14 -12
14 -21 0 -8 3 -14 8 -14 19 3 33 -2 28 -10 -3 -5 16 -8 44 -8 28 1 50 -2 50
-8 0 -5 4 -4 9 3 4 8 19 19 32 26 13 7 23 18 21 25 -1 6 5 14 13 17 8 3 12 10
9 15 -3 5 -1 9 3 9 10 0 9 35 -1 68 -4 12 -12 19 -18 16 -6 -4 -8 -2 -5 4 9
14 -3 43 -14 36 -5 -3 -9 2 -9 10 0 9 -8 16 -17 17 -88 4 -116 2 -121 -7z"/>
<path d="M2910 5215 c0 -6 -55 -9 -149 -8 -120 2 -150 -1 -155 -12 -3 -8 -14
-12 -26 -10 -11 2 -18 0 -15 -5 3 -5 -1 -12 -9 -17 -8 -4 -16 -12 -18 -18 -2
-5 -6 -9 -10 -8 -11 4 -18 -26 -7 -32 5 -4 6 -11 2 -18 -4 -6 -7 -124 -7 -262
l-1 -250 34 -32 c27 -25 41 -31 77 -31 24 0 42 4 38 9 -5 8 10 13 29 10 5 -1
6 3 3 8 -4 5 -1 11 6 13 8 3 11 64 12 221 l0 217 61 1 c33 1 82 2 108 2 34 0
46 4 43 13 -3 8 0 11 8 8 7 -3 16 2 20 11 3 9 10 13 16 10 6 -4 9 3 6 17 -2
13 1 29 6 36 6 7 7 12 1 12 -5 0 -8 18 -6 41 2 25 -1 38 -7 34 -5 -3 -10 -1
-10 5 0 7 -6 10 -12 7 -7 -2 -18 5 -25 17 -7 12 -12 17 -13 11z"/>
<path d="M3171 4811 c-9 -12 -10 -12 -4 -1 6 12 4 13 -9 3 -8 -7 -18 -10 -21
-6 -4 3 -7 1 -7 -5 0 -7 -3 -11 -7 -11 -20 3 -34 -2 -28 -11 3 -6 -1 -7 -9 -4
-9 3 -16 1 -16 -5 0 -6 -7 -11 -15 -11 -8 0 -15 -5 -15 -12 0 -6 -3 -9 -6 -5
-7 7 -54 -38 -54 -52 0 -5 -5 -13 -12 -17 -7 -5 -8 -2 -3 7 5 8 4 11 -1 6 -9
-9 -10 -13 -13 -42 0 -8 -8 -15 -16 -15 -9 0 -12 -6 -8 -16 3 -9 0 -20 -8 -25
-7 -4 -14 -25 -15 -46 -1 -21 -3 -38 -4 -38 -3 0 -11 -41 -11 -58 0 -11 -5
-15 -12 -10 -7 4 -6 0 2 -10 7 -9 11 -26 8 -37 -3 -10 0 -18 5 -17 5 1 11 -18
13 -42 1 -24 8 -47 15 -51 7 -4 10 -12 6 -18 -3 -5 1 -12 9 -16 8 -3 15 -17
15 -31 0 -15 4 -24 8 -21 5 3 23 -11 41 -29 18 -19 37 -35 42 -35 5 0 9 -6 9
-14 0 -8 9 -12 25 -11 16 2 25 -2 25 -11 0 -11 22 -20 33 -12 1 1 13 -5 27
-12 28 -16 211 -22 221 -8 3 5 15 10 27 11 12 0 25 8 29 17 10 23 11 50 2 44
-8 -5 -14 18 -10 39 1 5 -3 6 -9 2 -6 -3 -10 3 -10 15 0 12 -4 18 -10 15 -5
-3 -10 3 -10 15 0 11 -7 23 -15 26 -8 4 -13 10 -10 14 9 14 -55 17 -66 4 -12
-15 -39 -14 -61 2 -7 5 -25 9 -40 8 -15 0 -25 3 -22 7 3 5 -1 9 -8 10 -21 1
-68 64 -72 97 -1 16 -7 35 -11 42 -6 9 -4 11 4 5 9 -5 12 0 10 16 -2 13 1 30
5 38 6 10 5 12 -2 7 -8 -5 -10 -2 -6 8 3 9 11 16 16 16 6 0 7 7 4 16 -4 11 1
18 14 21 11 3 17 9 14 14 -4 8 17 14 38 10 4 0 5 5 3 12 -4 8 7 13 31 14 21 1
41 8 45 15 6 9 9 7 9 -7 0 -15 2 -17 9 -6 7 11 9 11 14 0 3 -9 6 -9 6 -2 1 8
10 9 30 3 31 -9 48 -3 53 20 2 8 9 20 16 25 7 6 14 18 15 27 2 9 8 22 14 29 6
8 13 19 15 24 1 6 5 9 8 8 3 -1 7 7 7 18 1 11 -2 17 -6 14 -5 -2 -16 4 -26 14
-9 11 -25 18 -36 16 -11 -2 -17 0 -14 6 7 11 11 10 -101 13 -74 2 -93 0 -103
-13z"/>
<path d="M3712 4822 c-13 -2 -19 -8 -16 -14 4 -7 2 -8 -5 -4 -6 4 -25 -3 -42
-14 -16 -12 -33 -20 -36 -17 -3 4 -21 -12 -39 -34 -19 -23 -34 -38 -34 -34 0
4 -9 -4 -21 -19 -11 -14 -18 -30 -14 -35 3 -6 -4 -15 -15 -21 -11 -6 -18 -15
-15 -21 4 -5 1 -9 -5 -9 -6 0 -8 -4 -5 -10 3 -5 2 -10 -3 -10 -5 0 -8 -15 -7
-34 1 -23 -3 -32 -11 -29 -8 3 -11 -21 -11 -86 0 -50 4 -88 9 -85 8 5 12 -9 9
-33 -1 -7 6 -24 14 -37 9 -14 14 -29 11 -35 -4 -5 2 -12 13 -16 10 -3 22 -17
25 -30 4 -14 12 -24 19 -22 6 1 11 -4 9 -10 -1 -7 3 -13 8 -13 6 0 24 -13 40
-30 20 -20 35 -28 46 -23 11 4 15 2 11 -4 -8 -13 20 -26 35 -16 7 3 8 1 4 -5
-8 -13 -9 -13 49 -16 23 -1 47 -6 54 -11 10 -5 12 -4 7 4 -4 6 0 14 8 17 9 3
16 10 16 16 0 5 -4 7 -8 4 -8 -5 -7 57 2 97 3 10 -2 21 -11 24 -12 5 -12 7 -1
14 11 7 11 9 -1 9 -7 0 -11 6 -8 14 4 10 0 12 -14 9 -10 -3 -19 0 -19 6 0 6
-12 11 -27 11 -14 0 -24 3 -20 6 3 3 -5 16 -19 29 -13 12 -24 27 -24 34 0 6
-6 11 -13 11 -8 0 -12 13 -11 35 1 19 -2 35 -7 35 -5 0 -9 5 -9 11 0 5 5 7 11
3 8 -5 10 1 7 20 -3 14 -2 26 2 26 5 0 6 8 3 18 -3 12 11 34 39 65 34 35 50
45 70 43 15 -2 27 0 26 3 -2 19 3 31 11 27 13 -8 19 25 16 83 -2 28 0 49 4 46
4 -2 3 10 -2 28 -9 29 -15 33 -46 33 -20 0 -46 -2 -59 -4z"/>
<path d="M3860 4812 c-10 -12 -11 -17 -2 -20 8 -2 9 -9 2 -23 -8 -14 -7 -19 1
-19 8 0 8 -4 -1 -15 -10 -12 -10 -15 0 -15 8 0 9 -4 4 -12 -9 -12 -10 -32 -4
-50 1 -5 3 -11 4 -16 3 -19 32 -39 51 -35 16 4 17 3 5 -6 -13 -9 -12 -11 3
-11 25 0 68 -45 61 -64 -4 -10 -1 -16 8 -16 12 0 15 -15 14 -72 -1 -50 -5 -72
-13 -71 -6 2 -10 -6 -8 -16 2 -10 -1 -24 -6 -32 -5 -8 -9 -10 -9 -5 0 5 -12
-4 -27 -20 -15 -16 -33 -28 -40 -26 -7 2 -13 -2 -13 -8 0 -5 -7 -10 -16 -10
-8 0 -13 -4 -9 -9 3 -5 1 -12 -5 -16 -6 -4 -8 -11 -5 -16 4 -5 -2 -9 -12 -10
-14 0 -13 -2 5 -10 15 -6 21 -13 16 -21 -11 -18 -12 -48 -2 -48 5 0 4 -9 -2
-20 -16 -31 7 -49 56 -44 63 7 64 7 64 13 0 4 9 12 21 19 17 11 20 11 13 0
-10 -17 21 6 58 43 14 15 29 25 32 21 3 -3 6 2 6 11 0 10 8 17 17 17 9 0 14 3
10 6 -7 7 24 44 33 39 3 -2 5 9 4 26 -1 16 2 26 7 23 5 -3 9 2 9 10 0 9 4 16
9 16 4 0 7 14 5 31 -2 18 0 28 6 24 6 -3 10 0 11 7 6 80 4 128 -4 128 -5 0 -4
7 3 15 10 12 9 16 -3 20 -9 4 -14 19 -14 38 1 24 -3 32 -16 31 -9 -1 -14 2
-11 8 3 5 0 16 -8 25 -9 12 -9 15 0 9 6 -4 12 -3 12 3 0 6 -9 15 -20 21 -11 6
-18 15 -15 20 3 5 -4 11 -15 15 -11 3 -20 14 -20 22 0 9 -3 14 -6 11 -7 -8
-50 34 -46 46 2 5 -6 6 -17 3 -11 -3 -28 3 -40 15 -12 10 -21 16 -21 12 0 -3
-8 0 -17 7 -15 12 -16 12 -8 -1 8 -13 7 -13 -8 -1 -24 19 -70 21 -87 3z"/>
<path d="M4306 4818 c3 -4 -1 -9 -8 -10 -7 0 -18 -2 -23 -2 -18 -2 -54 -44
-51 -59 1 -8 8 -23 16 -33 11 -13 11 -16 2 -10 -11 7 -11 4 0 -13 7 -12 16
-21 20 -21 5 0 8 -9 8 -20 0 -11 7 -20 16 -20 8 0 12 -4 9 -10 -3 -5 2 -10 12
-11 10 0 30 -2 46 -3 15 -1 27 2 27 7 0 4 8 4 18 0 9 -5 29 -8 44 -7 15 0 25
-3 22 -7 -3 -5 0 -9 5 -9 27 0 63 -31 67 -57 2 -9 8 -19 15 -23 6 -5 9 -15 6
-24 -3 -8 -2 -18 4 -22 7 -4 6 -10 -1 -19 -8 -9 -8 -15 0 -20 6 -4 7 -12 0
-24 -6 -12 -5 -22 1 -28 8 -8 5 -13 -10 -18 -12 -3 -19 -11 -16 -16 4 -5 -1
-12 -9 -15 -9 -3 -16 -12 -16 -20 0 -8 -6 -11 -17 -7 -11 4 -14 3 -9 -5 8 -13
6 -14 -41 -16 -17 -1 -39 -9 -49 -17 -10 -8 -15 -9 -12 -4 3 6 -4 10 -17 10
-13 0 -20 -4 -17 -10 3 -5 -4 -1 -16 9 -14 12 -22 14 -22 7 0 -7 -4 -9 -10 -6
-5 3 -10 1 -10 -5 0 -6 -5 -8 -10 -5 -6 4 -10 3 -9 -2 4 -21 -2 -33 -17 -33
-8 0 -12 -4 -9 -10 3 -5 3 -16 -2 -22 -4 -7 -8 -17 -8 -23 -1 -5 -7 -9 -14 -7
-7 1 -10 -2 -6 -8 4 -6 2 -17 -4 -24 -9 -10 -7 -15 5 -20 9 -4 14 -9 10 -13
-11 -11 68 -39 109 -38 22 1 46 -3 54 -9 11 -8 13 -8 8 0 -4 8 7 10 36 9 23
-1 48 3 56 9 12 9 13 8 7 -4 -4 -8 1 -5 11 8 14 17 21 20 30 11 10 -10 14 -9
19 4 3 9 10 14 15 11 5 -3 9 0 9 5 0 6 7 11 15 11 8 0 15 5 15 11 0 5 5 7 10
4 6 -3 10 1 10 9 0 9 7 16 15 16 8 0 15 7 15 15 0 8 4 14 9 13 5 -2 9 0 10 5
1 4 10 16 22 28 11 11 25 34 31 50 5 16 13 29 17 29 4 0 6 14 5 31 -2 23 1 29
12 25 12 -5 12 -2 3 15 -6 13 -7 19 -1 15 7 -4 10 22 9 73 -1 44 -4 79 -7 78
-3 -1 -5 1 -5 4 0 3 -6 13 -14 22 -8 11 -9 17 -3 17 12 0 -26 72 -40 78 -5 2
-6 7 -3 12 3 4 -8 20 -25 33 -16 14 -30 31 -30 38 0 7 -3 10 -6 6 -8 -7 -44
24 -38 34 2 4 -4 6 -13 5 -10 -2 -25 5 -35 14 -10 9 -28 16 -41 15 -12 -1 -25
3 -29 9 -8 12 -189 16 -182 4z"/>
<path d="M2229 4721 c-1 -3 -1 -10 0 -14 1 -5 -3 -6 -8 -3 -19 12 -39 -5 -35
-30 3 -14 0 -24 -7 -24 -6 0 -9 -6 -6 -14 3 -7 0 -19 -6 -25 -9 -9 -8 -11 6
-5 13 5 16 2 11 -10 -3 -9 -9 -14 -13 -11 -4 2 -8 -2 -8 -10 0 -8 3 -12 7 -10
8 5 4 -70 -5 -84 -3 -6 0 -11 7 -11 9 0 9 -3 -2 -10 -8 -5 -10 -10 -5 -10 6 0
10 -22 11 -50 0 -27 -3 -47 -7 -44 -4 2 -6 -6 -3 -18 3 -13 5 -36 5 -51 -1
-19 2 -26 10 -22 8 6 8 2 0 -14 -7 -13 -8 -21 -2 -21 5 0 8 -8 6 -18 -2 -10 1
-25 6 -33 5 -8 9 -10 9 -5 0 5 7 3 15 -4 8 -7 12 -17 8 -23 -3 -5 -2 -7 4 -4
5 3 33 7 61 8 36 2 52 7 52 16 0 8 4 12 9 8 13 -7 29 25 25 50 -1 10 2 25 8
32 6 7 7 13 2 13 -11 0 -11 311 0 328 4 7 3 12 -2 12 -4 0 -8 18 -7 39 1 22
-1 39 -4 38 -4 -1 -17 8 -31 21 -18 16 -35 22 -67 20 -24 -1 -44 -4 -44 -7z"/>
<path d="M5324 4713 c-18 -14 -20 -18 -23 -56 -1 -12 -6 -16 -13 -11 -10 5
-10 4 -1 -6 9 -10 8 -16 -4 -28 -14 -14 -13 -17 3 -29 10 -7 13 -13 6 -13 -6
0 -9 -7 -6 -15 4 -9 0 -15 -7 -15 -10 0 -10 -3 -3 -8 14 -9 14 -82 0 -82 -7 0
-7 -3 -1 -8 15 -11 17 -32 5 -47 -8 -10 -8 -15 1 -21 8 -5 9 -3 4 6 -5 9 -4
11 4 6 8 -6 9 -12 2 -20 -6 -7 -8 -16 -4 -19 3 -4 0 -7 -8 -7 -12 0 -12 -2 0
-9 10 -7 11 -13 1 -31 -11 -20 -10 -22 5 -16 16 6 16 4 4 -10 -10 -12 -11 -18
-3 -21 7 -2 10 -13 7 -23 -3 -12 0 -20 7 -20 7 0 10 -6 7 -14 -9 -22 28 -44
72 -43 23 1 41 -2 41 -8 0 -5 5 -2 11 8 5 9 16 17 23 17 24 0 44 61 41 130 -1
36 3 71 8 78 5 6 5 12 1 12 -11 0 -12 130 -1 148 5 6 4 12 -1 12 -11 0 -8 82
3 102 5 7 5 10 0 6 -11 -11 -35 11 -35 32 0 36 -106 53 -146 23z m-24 -113 c0
-5 -5 -10 -11 -10 -5 0 -7 5 -4 10 3 6 8 10 11 10 2 0 4 -4 4 -10z"/>
<path d="M5000 4436 c0 -14 -11 -21 -32 -17 -5 0 -8 -6 -8 -15 0 -8 -4 -13 -8
-10 -5 3 -8 -21 -8 -53 1 -77 18 -93 95 -94 46 -1 63 4 81 21 13 12 21 22 17
22 -4 0 -2 12 3 26 7 18 7 23 -1 18 -8 -4 -8 0 0 15 9 16 9 21 0 21 -7 0 -10
3 -6 6 10 11 -31 47 -44 38 -8 -5 -11 -3 -7 7 4 11 -2 15 -26 14 -17 0 -37 4
-43 9 -9 6 -13 3 -13 -8z"/>
<path d="M2552 4376 c4 -4 -4 -19 -18 -33 -19 -19 -22 -28 -14 -44 6 -10 7
-19 3 -19 -4 0 -8 -52 -8 -115 0 -63 3 -115 8 -115 6 0 6 -5 0 -12 -4 -7 -8
-37 -7 -65 1 -37 -2 -51 -10 -46 -6 4 -6 1 1 -9 7 -8 12 -30 10 -49 -2 -19 1
-42 6 -53 5 -10 5 -16 0 -13 -5 3 -9 -3 -9 -13 0 -10 5 -16 10 -13 5 4 7 -1 3
-11 -4 -10 -3 -15 3 -11 6 3 10 -1 10 -10 0 -8 7 -18 15 -21 8 -4 15 -13 15
-21 0 -10 6 -12 20 -8 13 4 22 1 26 -8 4 -12 36 -14 185 -13 113 1 179 -3 179
-9 0 -7 3 -7 8 0 4 6 69 10 157 10 88 0 153 -4 157 -10 5 -7 8 -7 8 0 0 8 158
12 180 4 3 -1 12 -2 20 -3 13 -1 15 -28 16 -173 2 -144 5 -175 18 -189 9 -8
13 -20 10 -26 -4 -6 -2 -8 4 -4 6 3 17 0 25 -8 11 -11 17 -12 26 -3 8 8 11 8
11 -1 0 -9 5 -10 18 -4 9 5 23 7 30 5 6 -3 12 1 12 7 0 9 5 9 17 -1 9 -8 14
-9 10 -2 -4 6 -1 17 6 25 8 7 13 21 11 31 -2 13 1 15 10 8 8 -7 12 -4 12 10 0
10 -4 19 -9 19 -4 0 -5 6 -1 12 12 19 12 48 0 48 -6 0 -6 4 2 12 8 8 8 17 1
31 -8 14 -8 18 0 13 6 -4 11 -2 11 3 0 6 -6 11 -12 11 -10 0 -9 3 1 9 11 7 11
9 0 14 -12 5 -11 8 1 17 11 8 12 13 3 16 -8 4 -9 13 -3 29 6 15 6 27 0 30 -7
4 -6 13 0 25 7 13 6 20 -3 23 -8 4 -8 8 -2 14 10 8 14 73 5 73 -3 0 -7 8 -8
18 -5 53 -10 67 -25 70 -9 2 -17 10 -17 18 0 12 -19 19 -42 15 -5 0 -8 7 -8
17 0 14 -2 15 -10 2 -6 -9 -10 -10 -10 -3 0 9 -21 12 -70 10 -41 -1 -70 2 -70
8 0 7 -3 7 -8 0 -4 -5 -40 -10 -80 -10 -41 0 -72 4 -72 10 0 7 -3 7 -8 0 -4
-5 -38 -10 -77 -10 -38 0 -73 5 -77 10 -5 7 -8 7 -8 0 0 -6 -32 -10 -75 -10
-43 0 -75 4 -75 10 0 7 -3 7 -8 0 -4 -5 -38 -10 -77 -10 -38 0 -73 5 -77 10
-5 7 -8 7 -8 0 0 -5 -17 -9 -37 -8 -21 1 -47 2 -59 2 -21 1 -21 4 -20 225 1
123 -2 222 -6 220 -4 -2 -9 5 -13 16 -3 11 -11 20 -16 21 -34 4 -56 2 -68 -6
-10 -5 -12 -4 -7 3 4 7 3 12 -3 12 -5 0 -13 -5 -16 -10 -5 -8 -12 -7 -23 2
-10 7 -14 9 -10 4z"/>
<path d="M4990 4146 c0 -5 -3 -6 -6 -3 -4 4 -15 -2 -24 -13 -14 -16 -17 -36
-16 -88 1 -38 -2 -70 -8 -74 -7 -5 -8 -11 -1 -15 14 -11 19 -47 6 -38 -7 3 -8
0 -5 -9 7 -17 6 -18 -126 -18 -68 0 -77 -2 -98 -27 -14 -14 -21 -21 -18 -14 3
6 1 15 -6 19 -7 4 -10 4 -6 -1 4 -4 3 -16 -2 -26 -7 -12 -7 -20 1 -24 6 -5 4
-12 -8 -22 -10 -8 -12 -11 -5 -8 10 5 13 1 10 -18 -3 -27 29 -77 50 -77 7 0
11 -4 8 -9 -4 -5 5 -8 19 -6 14 1 28 -2 31 -7 3 -4 10 -6 15 -2 5 3 68 6 139
7 105 0 130 3 130 15 0 8 6 12 15 8 8 -3 14 -1 12 4 -1 5 6 15 16 22 10 7 19
25 21 39 1 13 6 30 10 37 4 7 2 12 -4 12 -8 0 -8 6 0 20 7 13 7 20 1 20 -7 0
-7 9 -1 26 7 16 7 23 0 19 -7 -4 -7 3 0 19 6 18 6 26 -1 26 -6 0 -7 6 -1 16 5
9 6 31 2 50 -5 20 -3 37 3 43 8 8 7 11 -2 11 -7 0 -10 4 -6 10 10 17 -6 57
-29 69 -28 15 -116 21 -116 7z"/>
<path d="M4048 3894 c-3 -3 -24 -5 -47 -6 -23 0 -44 -4 -47 -9 -3 -5 -10 -6
-16 -3 -6 4 -8 2 -4 -4 3 -6 -1 -15 -10 -20 -11 -6 -15 -17 -11 -31 3 -12 0
-21 -6 -21 -8 0 -8 -3 -2 -8 10 -7 15 -162 5 -162 -3 0 -3 -40 0 -90 3 -50 2
-90 -2 -90 -4 0 -3 -13 2 -30 5 -16 6 -30 2 -30 -8 0 -6 -135 2 -156 3 -8 1
-14 -5 -14 -6 0 -6 -7 1 -20 8 -15 8 -20 -2 -20 -9 0 -9 -3 2 -10 8 -5 11 -10
5 -10 -10 0 -11 -140 -1 -166 3 -8 1 -14 -5 -14 -6 0 -6 -7 -1 -17 4 -10 7
-28 7 -40 -2 -15 2 -20 13 -15 8 3 13 1 10 -4 -3 -5 0 -15 8 -22 8 -7 14 -10
14 -6 0 3 12 -2 27 -11 25 -17 26 -17 19 0 -5 15 -4 16 9 5 9 -8 15 -8 15 -2
0 6 9 9 19 7 22 -4 45 18 60 58 8 20 8 26 0 21 -6 -4 -5 4 2 17 17 29 20 59 6
59 -5 0 -3 8 4 17 8 9 9 14 3 10 -8 -5 -12 4 -12 27 0 19 -4 41 -8 48 -6 10
-5 11 7 1 12 -9 14 -6 14 17 1 16 -2 27 -6 24 -4 -2 -10 0 -14 6 -3 5 -2 10 4
10 6 0 7 7 4 17 -5 11 -3 14 6 8 8 -4 6 4 -4 19 -17 25 -17 26 1 19 18 -6 18
-5 -1 17 l-20 23 20 -7 c16 -6 18 -5 8 5 -16 16 -17 33 -2 24 6 -4 5 3 -3 14
-11 18 -11 23 2 31 10 6 11 10 3 10 -7 0 -13 10 -13 23 0 13 6 29 13 36 10 11
10 13 0 7 -16 -9 -17 8 -3 35 9 15 7 19 -7 20 -16 0 -16 1 2 9 11 5 14 9 6 9
-11 1 -11 4 0 18 12 15 12 16 -3 11 -11 -5 -15 -2 -13 10 2 9 4 21 4 25 1 5 4
6 9 4 4 -3 7 6 7 19 0 14 -5 22 -12 20 -8 -3 -8 5 -1 30 7 26 6 40 -4 52 -11
14 -11 15 6 9 16 -6 17 -5 6 8 -7 8 -10 24 -7 34 3 11 0 22 -7 25 -6 2 -2 5 9
5 16 1 17 3 5 11 -8 5 -15 21 -16 37 -2 42 -3 43 -20 43 -8 0 -12 4 -9 10 4 6
-1 7 -11 3 -12 -4 -15 -3 -10 5 7 12 4 16 -6 6z m72 -895 c0 -5 -4 -9 -8 -9
-5 0 -9 7 -9 15 0 8 4 12 9 9 4 -3 8 -9 8 -15z"/>
<path d="M4346 3874 c-3 -8 -12 -11 -22 -7 -12 4 -15 3 -10 -5 4 -7 3 -12 -3
-12 -6 0 -13 -11 -17 -25 -3 -14 -10 -23 -14 -20 -9 5 -9 -67 -1 -75 3 -3 12
-16 19 -29 10 -17 10 -21 1 -16 -8 5 -10 4 -5 -3 4 -7 14 -12 22 -12 8 0 14
-4 14 -10 0 -5 7 -10 15 -10 8 0 15 -6 15 -12 0 -9 3 -9 8 -2 8 12 53 14 45 1
-3 -5 4 -4 17 3 12 6 28 9 36 6 8 -3 13 -2 10 2 -3 5 4 15 15 22 10 8 19 20
19 26 0 7 5 14 11 16 17 6 18 96 2 110 -7 5 -10 15 -6 21 3 6 1 7 -5 3 -7 -4
-12 -1 -12 7 0 8 -8 14 -17 13 -10 0 -17 4 -16 10 3 16 -115 15 -121 -2z"/>
<path d="M4762 3543 c8 -10 6 -13 -6 -13 -9 0 -24 -8 -33 -18 -17 -17 -22 -29
-27 -58 -1 -7 -8 -19 -16 -29 -7 -9 -9 -15 -4 -14 27 5 36 -1 24 -16 -7 -9 -8
-15 -2 -15 5 0 9 -6 8 -12 0 -7 3 -14 7 -15 4 -1 14 -8 21 -15 41 -38 76 -57
76 -39 0 4 10 8 23 8 48 1 57 4 57 18 0 8 3 14 8 14 22 -4 30 3 27 21 -2 11 2
20 9 20 8 0 12 16 12 50 -1 35 -5 49 -13 46 -7 -3 -10 1 -7 8 3 7 -7 21 -21
30 -14 9 -23 21 -20 26 4 6 -7 8 -24 6 -17 -2 -31 -1 -31 3 0 3 -18 6 -39 6
-30 0 -37 -3 -29 -12z"/>
<path d="M3176 3501 c2 -2 -9 -15 -24 -29 -15 -13 -21 -21 -15 -18 9 5 11 2 7
-8 -3 -9 -13 -16 -20 -16 -12 0 -12 -4 -4 -20 8 -14 8 -20 0 -20 -7 0 -8 -6
-1 -19 6 -10 7 -21 4 -25 -3 -3 -1 -6 6 -6 8 0 11 -8 8 -20 -4 -15 1 -22 19
-26 13 -3 24 -10 24 -14 0 -4 18 -12 40 -18 23 -6 37 -6 34 -1 -3 6 6 8 21 5
20 -4 33 2 50 19 12 14 27 25 33 25 6 0 9 7 5 15 -3 9 3 23 13 31 11 9 12 12
4 8 -13 -7 -13 -5 -1 9 12 15 11 17 -5 18 -11 0 -14 3 -8 5 15 6 6 46 -12 57
-7 4 -10 15 -7 24 4 10 2 14 -4 10 -6 -4 -18 -1 -25 7 -9 9 -36 13 -80 12 -37
0 -65 -3 -62 -5z"/>
<path d="M4356 3498 c3 -4 -7 -10 -21 -14 -15 -4 -28 -15 -31 -30 -3 -13 -12
-24 -18 -24 -8 0 -13 -17 -13 -50 0 -27 4 -47 8 -45 9 6 21 -24 14 -35 -3 -5
4 -11 15 -15 11 -3 20 -11 20 -16 0 -6 9 -7 20 -4 15 5 20 2 21 -12 0 -10 3
-13 6 -6 3 9 10 10 24 3 15 -9 17 -8 12 6 -5 14 -3 15 14 6 11 -6 25 -7 33 -2
8 5 18 6 24 3 5 -3 6 -1 2 6 -4 6 -13 8 -19 5 -9 -5 -9 -4 -1 5 6 7 20 13 30
13 14 1 19 9 19 27 0 15 5 25 11 24 7 -1 10 6 7 17 -3 11 -10 20 -16 20 -6 0
-2 7 9 15 17 13 17 14 2 15 -11 0 -16 6 -13 20 2 13 -2 20 -11 20 -8 0 -14 7
-14 15 0 8 -7 15 -16 15 -8 0 -12 5 -9 10 3 6 -2 11 -12 11 -65 5 -101 4 -97
-3z"/>
<path d="M3037 2597 c-11 -11 -19 -34 -19 -53 0 -19 -4 -31 -9 -28 -5 3 -6 -2
-3 -10 3 -9 11 -16 17 -16 6 0 2 -7 -9 -15 -16 -13 -16 -14 -1 -9 14 5 16 2
10 -12 -9 -26 -33 -49 -33 -34 0 8 -8 10 -21 7 -16 -4 -18 -3 -9 8 9 11 7 12
-11 8 -16 -5 -20 -3 -14 6 6 10 3 11 -14 2 -16 -9 -21 -9 -21 1 0 8 -3 9 -8 3
-4 -5 -16 -10 -27 -9 -11 0 -25 -4 -32 -9 -7 -5 -17 -6 -23 -2 -5 3 -10 1 -10
-5 0 -7 -6 -10 -12 -8 -14 5 -71 -48 -81 -75 -4 -10 -10 -16 -15 -13 -4 2 -7
-8 -6 -22 1 -18 -6 -32 -20 -40 -15 -10 -16 -12 -3 -8 14 4 16 2 9 -12 -12
-24 -6 -113 8 -122 9 -6 9 -9 -1 -13 -10 -4 -10 -6 -1 -6 6 -1 12 -10 12 -21
0 -11 5 -20 10 -20 6 0 10 -6 10 -14 0 -8 7 -17 16 -20 8 -3 12 -11 8 -17 -5
-8 -3 -9 5 -5 7 5 19 0 27 -10 9 -11 12 -12 8 -5 -4 9 7 4 26 -9 18 -13 30
-19 26 -12 -5 8 1 11 18 10 21 -2 23 -5 13 -17 -9 -11 -4 -11 17 3 16 10 26
13 22 8 -4 -6 2 -10 13 -9 11 0 18 4 15 8 -2 4 3 10 12 13 8 3 12 2 9 -4 -3
-6 1 -10 10 -10 10 0 13 5 9 12 -5 8 0 9 14 6 12 -4 20 -2 16 3 -3 5 2 9 10 9
9 0 16 -4 16 -9 0 -5 9 -11 20 -14 11 -3 20 0 20 6 0 7 5 6 11 -3 8 -12 12
-12 16 -2 3 9 9 10 17 3 7 -6 17 -6 26 -1 13 8 15 55 15 294 0 156 4 282 8
279 5 -3 4 4 -2 15 -18 33 -55 50 -67 31 -3 -6 -11 -6 -17 -1 -8 6 -19 2 -30
-11z m-103 -269 c19 -1 33 -5 30 -10 -3 -4 2 -8 10 -8 14 0 20 -12 17 -32 0
-5 7 -8 17 -8 14 0 15 -2 2 -10 -13 -8 -12 -10 3 -10 18 0 19 -20 2 -32 -6 -5
-6 -8 1 -8 12 0 11 -24 -1 -52 -4 -10 -11 -15 -17 -12 -5 3 -8 -2 -6 -12 2
-11 -2 -18 -9 -17 -7 2 -13 -2 -13 -8 0 -5 -4 -8 -9 -5 -5 4 -11 1 -13 -4 -2
-6 -14 -11 -28 -11 -14 1 -35 1 -47 1 -13 0 -23 5 -23 11 0 5 -4 7 -10 4 -5
-3 -10 1 -10 10 0 9 -4 13 -10 10 -9 -5 -12 8 -9 31 0 4 -5 10 -12 14 -7 5 -9
15 -4 26 12 29 14 45 4 38 -5 -3 -9 -1 -9 5 0 5 5 11 10 13 6 2 12 13 13 25 0
12 3 20 5 18 2 -2 12 5 23 16 11 11 24 17 29 14 6 -4 10 -1 10 5 0 6 4 9 10 5
5 -3 25 -6 44 -7z"/>
<path d="M3796 2609 c2 -4 -4 -10 -13 -13 -16 -5 -18 -21 -17 -168 1 -111 -2
-165 -10 -170 -8 -6 -8 -8 0 -8 7 0 11 -34 12 -97 1 -169 0 -163 23 -163 13 0
18 -4 13 -12 -6 -10 -4 -10 7 0 7 6 25 12 39 12 14 0 32 6 38 12 8 8 15 9 20
3 4 -6 12 -11 17 -12 6 -1 19 -5 29 -9 15 -6 17 -4 11 7 -6 11 -5 11 5 2 7 -6
19 -9 26 -6 9 3 14 -2 14 -13 0 -17 1 -17 14 1 12 16 16 17 30 6 15 -13 21 -8
17 13 -1 5 4 4 12 -2 10 -9 17 -9 27 1 10 10 11 9 5 -3 -7 -12 -6 -13 7 -3 8
7 19 9 23 5 5 -4 5 1 2 10 -4 12 -1 16 13 13 11 -2 19 1 17 8 -1 7 4 11 11 9
11 -2 16 10 13 31 0 4 4 6 11 5 7 -2 12 3 13 10 0 7 7 17 15 22 13 9 13 10 0
10 -10 0 -11 3 -4 8 16 11 24 52 11 52 -9 0 -9 2 -1 8 6 4 10 23 8 42 -2 19 3
38 9 42 8 5 7 8 -3 8 -11 0 -15 9 -14 28 1 31 -34 84 -50 75 -6 -4 -5 1 3 10
13 16 8 22 -13 18 -5 -1 -12 3 -16 9 -7 11 -27 17 -58 19 -7 1 -10 5 -7 11 4
6 -6 8 -24 6 -18 -2 -31 1 -31 8 0 7 -3 7 -8 1 -4 -5 -16 -10 -27 -10 -11 1
-23 -4 -27 -10 -5 -6 -8 -5 -8 3 0 7 -5 10 -10 7 -6 -4 -8 -11 -4 -16 3 -5 2
-9 -3 -8 -4 1 -10 0 -13 -1 -3 -1 -17 -4 -32 -6 -23 -4 -26 -2 -21 12 4 11 2
15 -4 11 -7 -5 -9 0 -6 12 3 13 11 18 21 14 13 -4 13 -2 -2 9 -13 11 -16 17
-7 22 6 4 8 13 4 19 -12 19 -14 49 -3 42 18 -11 10 4 -15 29 -13 14 -27 21
-30 16 -3 -4 -13 -7 -23 -5 -9 2 -19 4 -22 4 -3 1 2 6 10 11 12 7 10 9 -7 7
-12 0 -20 -4 -17 -8z m244 -277 c0 8 4 7 10 -3 5 -9 21 -20 35 -23 18 -5 25
-13 25 -32 0 -15 4 -23 10 -19 13 8 8 -18 -5 -27 -6 -5 -5 -8 2 -8 7 0 12 -11
11 -25 -2 -15 -7 -24 -14 -21 -8 3 -11 -3 -8 -20 3 -17 -1 -26 -13 -31 -10 -4
-24 -14 -31 -22 -11 -13 -12 -13 -7 -1 6 13 5 13 -7 0 -14 -16 -78 -16 -78 1
0 5 -9 9 -20 9 -11 0 -20 5 -20 11 0 5 -5 7 -12 3 -6 -4 -8 -3 -4 4 3 6 2 13
-4 17 -6 4 -8 11 -5 16 4 5 -2 9 -12 10 -10 0 -13 3 -6 5 8 4 9 13 3 30 -8 20
-6 24 8 25 14 0 14 2 -3 9 -14 6 -16 9 -5 10 8 2 19 2 24 1 5 -1 4 5 -4 13 -8
11 -9 16 -1 16 6 0 10 6 9 13 -2 6 5 11 14 11 9 -1 14 4 12 11 -4 9 4 12 25
11 17 -1 31 2 31 6 0 5 9 4 20 -2 15 -8 20 -8 20 2z"/>
<path d="M5970 2603 c0 -7 -5 -13 -11 -13 -18 0 -6 -64 15 -83 11 -10 32 -17
46 -15 14 1 31 -2 39 -6 10 -6 12 -5 7 2 -4 7 -3 12 3 12 6 0 7 7 4 17 -5 11
-3 14 6 8 10 -6 11 -3 2 13 -8 15 -8 23 0 27 7 5 2 15 -13 29 -25 24 -98 30
-98 9z"/>
<path d="M1775 2582 c-3 -7 -9 -10 -15 -7 -5 3 -10 1 -10 -4 0 -6 -3 -10 -7
-9 -25 5 -102 -55 -103 -79 0 -7 -5 -13 -11 -13 -5 0 -7 -4 -4 -10 3 -5 1 -10
-4 -10 -6 0 -11 -8 -11 -18 0 -10 -6 -24 -12 -30 -15 -15 -19 -242 -5 -239 5
1 11 -6 12 -16 6 -33 15 -48 25 -42 5 3 12 -6 16 -20 3 -13 9 -23 14 -20 4 2
13 -7 20 -20 7 -13 17 -22 22 -19 4 3 8 0 8 -6 0 -7 7 -9 15 -6 9 3 18 -1 22
-10 3 -8 13 -14 22 -13 32 3 42 -1 35 -13 -5 -9 -2 -8 10 1 13 11 20 11 28 3
7 -7 17 -12 23 -12 5 0 3 5 -5 10 -9 6 -10 10 -3 10 6 0 15 -5 18 -10 4 -6 12
-7 18 -3 7 4 26 8 42 10 17 1 45 3 63 4 17 1 32 5 32 9 0 4 9 10 20 13 11 3
20 13 20 22 0 9 4 14 9 10 12 -7 7 26 -8 53 -6 11 -8 22 -5 24 12 13 -48 14
-71 2 -14 -7 -25 -11 -25 -9 0 2 -13 0 -29 -5 -19 -5 -33 -4 -41 3 -10 9 -11
9 -6 0 3 -6 2 -14 -4 -18 -5 -3 -10 -2 -10 2 0 5 -14 10 -31 11 -17 1 -41 8
-52 14 -26 14 -51 38 -40 38 4 0 0 5 -9 11 -10 5 -18 17 -18 25 0 8 -8 27 -17
41 -10 15 -13 24 -6 20 6 -4 14 -3 18 3 3 5 -1 10 -9 10 -13 0 -14 5 -6 26 6
14 8 30 4 35 -3 5 0 9 5 9 6 0 11 9 11 21 0 11 5 17 10 14 6 -3 10 -1 10 4 0
6 -4 11 -10 11 -5 0 4 14 22 30 17 17 40 30 51 30 13 0 17 5 13 15 -6 16 14
16 26 0 5 -6 8 -5 8 3 0 10 5 10 20 2 15 -8 20 -8 20 2 0 8 3 9 8 3 4 -5 18
-10 32 -9 14 0 33 -6 42 -14 9 -8 22 -11 29 -6 8 4 10 3 5 -4 -8 -14 13 -16
32 -3 15 9 26 75 17 109 -3 14 -13 22 -26 22 -13 0 -18 4 -13 13 6 9 4 9 -8
-1 -12 -10 -17 -10 -20 -1 -6 18 -216 19 -223 1z"/>
<path d="M2321 2443 c-12 -8 -25 -12 -28 -9 -4 3 -15 -2 -26 -11 -11 -10 -18
-13 -14 -7 3 6 -1 11 -9 11 -8 0 -13 -6 -10 -14 3 -7 1 -13 -4 -13 -6 0 -18
-8 -27 -18 -25 -26 -68 -86 -56 -79 5 3 10 0 10 -8 0 -8 -5 -13 -10 -12 -7 1
-11 -29 -12 -75 0 -42 3 -74 7 -72 7 5 12 -20 6 -31 -2 -2 6 -11 17 -20 11 -9
13 -13 5 -9 -8 5 1 -9 20 -29 19 -21 40 -35 47 -32 7 2 13 -2 13 -10 0 -9 10
-15 26 -15 17 0 23 -4 18 -12 -5 -9 -2 -9 9 1 13 11 17 11 17 1 0 -8 3 -10 7
-7 3 4 13 1 21 -6 10 -8 13 -8 9 -1 -4 7 0 15 9 18 24 9 31 7 14 -4 -12 -8
-10 -10 8 -10 13 0 21 4 18 8 -3 5 1 9 9 9 8 0 12 -3 10 -7 -2 -4 2 -7 10 -7
8 0 12 4 9 9 -5 7 19 12 54 11 6 -1 12 5 12 13 0 7 8 11 19 9 13 -2 18 1 15 9
-3 7 8 24 24 36 17 13 28 30 25 37 -3 7 0 13 7 13 6 0 8 5 5 10 -3 6 -2 10 4
10 5 0 8 8 6 18 -1 9 1 24 6 33 5 10 3 21 -4 28 -9 9 -9 14 2 20 8 5 9 11 3
15 -6 3 -8 16 -4 28 3 14 1 19 -6 14 -8 -5 -10 -2 -6 8 3 9 1 16 -6 16 -6 0
-9 4 -6 9 3 4 -3 19 -14 31 -11 12 -17 27 -13 33 3 6 1 7 -6 3 -6 -4 -14 0
-17 9 -4 9 -13 14 -20 11 -8 -3 -14 1 -14 10 0 10 -6 14 -14 11 -7 -3 -22 0
-32 8 -11 7 -35 12 -54 12 -20 -1 -43 2 -52 5 -8 4 -26 0 -37 -9z m69 -112 c0
-5 9 -7 20 -4 12 3 20 0 20 -6 0 -7 4 -10 9 -6 15 8 48 -46 54 -87 3 -21 -1
-48 -9 -64 -8 -14 -11 -30 -8 -35 3 -5 -2 -9 -10 -9 -9 0 -16 -4 -16 -10 0 -5
-7 -10 -16 -10 -8 0 -13 -4 -10 -8 3 -4 -20 -6 -51 -4 -56 4 -93 27 -101 62
-2 8 -8 17 -13 18 -6 3 -5 10 2 18 9 11 8 14 -2 14 -10 0 -10 3 -1 12 9 9 9
15 -1 27 -10 12 -9 14 4 9 9 -3 16 -1 17 5 2 27 9 47 17 54 4 4 5 2 0 -6 -5
-9 -4 -12 3 -7 7 4 12 13 12 21 0 8 11 12 34 11 19 -1 32 2 30 6 -3 5 0 8 5 8
6 0 11 -4 11 -9z"/>
<path d="M5025 2444 c-20 -10 -31 -12 -33 -4 -3 7 -9 7 -20 -2 -13 -11 -14
-11 -7 2 8 13 6 13 -8 2 -9 -8 -22 -10 -28 -6 -8 5 -9 3 -5 -5 6 -8 2 -11 -10
-9 -15 2 -18 -4 -19 -40 0 -24 4 -46 9 -50 16 -9 86 -9 86 0 0 5 5 6 10 3 6
-4 18 -1 26 6 8 6 17 9 21 5 3 -3 0 -7 -8 -8 -8 0 6 -4 31 -7 30 -4 44 -10 42
-19 -1 -8 2 -11 7 -8 5 3 15 -2 22 -11 10 -12 10 -14 2 -9 -7 4 -13 3 -13 -3
0 -5 6 -12 13 -14 7 -4 6 -6 -5 -6 -9 -1 -24 -4 -34 -8 -13 -5 -15 -3 -9 8 7
11 6 12 -6 3 -8 -6 -44 -10 -81 -9 -37 0 -65 -2 -62 -6 2 -4 0 -10 -6 -14 -5
-3 -10 0 -10 7 0 9 -3 9 -8 2 -4 -6 -15 -13 -24 -17 -29 -10 -51 -56 -52 -108
-1 -27 3 -49 7 -49 5 0 5 -5 1 -12 -5 -7 -2 -9 8 -5 12 4 14 0 10 -16 -3 -12
-2 -19 3 -15 9 9 35 -16 35 -34 0 -10 3 -9 10 2 6 10 10 11 10 3 0 -7 5 -13
11 -13 5 0 7 4 4 10 -3 6 1 7 9 4 9 -3 13 -11 9 -18 -4 -6 1 -5 10 3 13 10 17
10 17 1 0 -10 3 -10 14 -1 10 9 16 9 21 1 5 -8 10 -8 20 0 10 8 14 7 18 -2 4
-10 6 -10 6 0 1 6 10 12 20 12 11 0 22 6 24 13 4 9 8 9 15 -2 8 -11 10 -11 15
0 4 10 6 10 6 2 1 -8 15 -13 34 -13 18 0 39 -6 46 -12 10 -11 11 -10 6 4 -5
13 -2 15 13 11 11 -2 23 1 27 8 5 7 4 10 -1 6 -5 -3 -10 3 -10 13 0 15 3 17
15 7 12 -10 13 -9 3 10 -8 15 -9 24 -2 28 8 5 8 11 1 19 -7 9 -7 16 1 24 9 9
9 12 0 12 -10 0 -10 5 -1 22 10 18 9 20 -6 14 -14 -5 -16 -4 -7 7 7 8 9 17 5
21 -4 4 -1 11 7 16 8 6 10 10 5 10 -15 0 -17 50 -2 50 8 0 8 3 -2 9 -8 5 -10
14 -6 21 5 8 4 11 -2 7 -13 -8 -23 39 -11 51 5 5 1 15 -9 23 -16 12 -17 12 -8
-1 6 -9 0 -4 -12 10 -13 14 -23 29 -23 33 0 5 -4 5 -10 2 -5 -3 -10 -2 -10 3
0 6 -6 10 -12 9 -34 -1 -49 4 -42 14 5 8 1 8 -14 0 -17 -9 -23 -8 -30 5 -6 11
-11 13 -16 5 -4 -6 -12 -11 -17 -11 -6 0 -7 5 -4 10 8 13 5 13 -30 -6z m71
-263 c9 8 14 8 14 1 0 -6 8 -9 18 -7 12 2 18 -3 18 -15 0 -10 -4 -16 -8 -14
-4 3 -8 0 -8 -5 0 -6 5 -11 10 -11 6 0 3 -11 -7 -24 -10 -13 -24 -21 -30 -19
-7 3 -13 1 -13 -5 0 -5 -14 -12 -32 -14 -25 -4 -38 1 -64 26 l-33 31 24 21
c13 12 27 19 30 16 3 -3 5 0 5 6 0 6 9 9 20 7 11 -2 23 1 27 8 5 8 8 8 11 -1
3 -10 7 -10 18 -1z"/>
<path d="M5603 2453 c4 -6 0 -14 -9 -17 -10 -4 -13 -2 -7 6 4 7 -6 3 -21 -10
-16 -12 -32 -19 -37 -16 -5 3 -9 1 -9 -5 0 -6 -7 -8 -15 -5 -8 4 -15 10 -15
16 0 5 5 6 12 2 6 -4 8 -3 5 4 -4 5 -16 8 -27 5 -11 -3 -20 -1 -20 4 0 13 -43
11 -52 -2 -5 -6 -12 -4 -19 5 -9 13 -10 12 -5 -2 3 -10 2 -18 -2 -18 -12 0 -9
-484 3 -492 7 -5 7 -11 0 -15 -15 -12 -19 -47 -4 -38 9 6 9 3 1 -11 -8 -14 -6
-21 6 -32 12 -9 13 -11 2 -6 -8 4 -11 3 -7 -1 11 -13 38 -15 31 -3 -4 7 -2 8
5 4 19 -12 61 -14 67 -4 3 4 9 6 13 4 4 -3 8 1 8 9 0 8 -4 12 -9 9 -4 -3 -5 2
-2 11 5 13 9 13 23 3 9 -7 6 -1 -7 14 -17 19 -20 28 -11 33 8 6 10 4 4 -6 -5
-8 -4 -10 0 -6 11 9 16 39 6 33 -3 -2 -6 16 -7 42 0 25 2 40 4 34 2 -7 8 -12
13 -12 6 0 7 5 4 10 -3 6 -2 10 4 10 5 0 15 -8 20 -17 6 -10 11 -13 11 -6 0 7
7 10 15 7 8 -4 12 -11 9 -16 -4 -6 2 -5 14 1 27 14 35 14 26 -1 -5 -9 -2 -9 9
1 11 9 17 10 17 2 0 -6 5 -11 11 -11 5 0 8 4 5 8 -6 10 25 9 42 -1 8 -6 10 -3
5 9 -5 14 -3 15 16 5 17 -9 21 -9 19 1 -2 7 7 14 20 16 15 2 22 9 18 17 -3 10
0 12 11 8 13 -5 15 -2 10 11 -4 9 -3 15 2 12 5 -3 17 6 26 20 12 18 13 24 4
19 -8 -3 -6 0 4 8 10 8 17 19 16 23 -4 22 2 35 14 29 6 -4 5 0 -4 7 -15 12
-15 15 -1 27 13 13 13 15 -3 21 -17 6 -17 7 -2 13 9 3 17 12 17 19 0 9 -3 9
-11 -2 -8 -11 -9 -7 -4 18 4 21 3 32 -5 32 -6 0 -9 4 -6 9 10 15 -5 41 -23 42
-12 0 -12 2 4 9 16 7 17 9 3 9 -9 1 -25 12 -36 26 -11 14 -25 25 -32 25 -6 0
-8 5 -4 12 5 7 0 9 -14 6 -12 -3 -23 -1 -24 4 -2 6 -15 11 -28 12 -14 1 -31 5
-37 9 -7 5 -13 4 -13 -2 0 -11 -19 -9 -39 3 -9 6 -12 5 -8 -1z m17 -125 c0 6
5 12 11 12 5 0 7 -5 3 -12 -5 -7 -3 -8 5 -4 20 12 71 -14 71 -36 0 -10 5 -16
10 -13 12 7 12 6 15 -67 1 -32 -2 -55 -6 -52 -5 3 -9 -2 -9 -10 0 -9 -7 -16
-17 -16 -9 0 -14 -3 -10 -6 12 -13 -24 -36 -48 -31 -14 2 -25 1 -25 -3 0 -4
-11 -5 -25 -2 -14 2 -25 8 -25 13 0 5 -4 9 -10 9 -19 0 -50 35 -50 57 0 13 -5
23 -11 23 -6 0 -7 5 -2 13 4 6 6 23 4 36 -2 17 1 21 11 15 9 -5 9 -2 -2 11 -9
11 -10 16 -2 11 11 -7 17 5 13 28 -1 5 6 3 15 -5 10 -8 15 -9 11 -3 -4 7 1 18
10 25 14 12 16 12 8 0 -6 -11 -2 -10 15 2 19 13 26 14 32 4 6 -9 8 -9 8 1z"/>
<path d="M6023 2453 c-24 -2 -43 -9 -43 -15 0 -7 -5 -7 -14 1 -12 10 -14 -1
-13 -69 1 -45 -2 -80 -7 -80 -6 0 -5 -5 1 -11 7 -7 8 -21 3 -39 -5 -16 -6 -31
-3 -34 6 -5 8 -81 3 -101 -1 -5 -1 -14 0 -20 6 -25 4 -41 -5 -47 -6 -5 -6 -8
2 -8 6 0 10 -9 8 -20 -3 -16 2 -20 23 -21 15 0 37 -2 50 -5 15 -3 21 0 16 7
-4 7 2 7 17 -1 13 -7 21 -9 17 -5 -4 5 -2 15 5 23 9 13 9 14 0 8 -16 -9 -17 6
-1 22 9 9 9 12 0 12 -13 0 -10 39 4 61 4 8 3 9 -4 5 -13 -8 -17 6 -5 18 10 10
11 46 1 40 -4 -3 -8 0 -8 5 0 6 6 11 13 11 9 0 8 3 -2 9 -10 6 -10 10 -1 16 9
6 9 10 -1 16 -12 8 -11 11 1 19 11 7 11 10 2 10 -8 0 -10 5 -5 13 11 18 12 36
2 43 -5 3 -6 11 -2 17 11 18 12 36 2 43 -5 3 -4 14 2 26 8 15 8 19 0 14 -10
-6 -16 13 -12 37 0 4 0 6 -1 5 -2 -1 -22 -3 -45 -5z"/>
<path d="M3392 2443 c-6 -2 -10 -9 -6 -14 3 -5 0 -9 -5 -9 -6 0 -11 5 -11 12
0 6 -7 4 -18 -5 -10 -10 -24 -17 -30 -17 -7 0 -12 -4 -12 -9 0 -5 -9 -13 -20
-16 -11 -4 -18 -11 -15 -16 4 -5 1 -9 -4 -9 -6 0 -11 -9 -11 -21 0 -11 -4 -17
-10 -14 -5 3 -11 1 -11 -4 -1 -6 -2 -17 -3 -23 -1 -7 3 -16 9 -20 6 -5 2 -8
-8 -8 -10 0 -16 -4 -13 -9 4 -5 0 -12 -6 -15 -11 -5 -11 -7 0 -12 6 -3 10 -10
6 -15 -10 -17 -13 -49 -3 -49 5 0 8 -3 7 -7 0 -5 2 -16 7 -26 4 -10 5 -21 1
-24 -3 -3 2 -12 12 -20 10 -9 11 -12 2 -7 -8 4 -3 -5 13 -21 15 -15 27 -32 27
-37 0 -6 7 -7 15 -4 10 4 19 -2 24 -17 5 -12 11 -21 15 -19 16 6 57 1 52 -7
-3 -5 5 -8 18 -7 13 0 21 6 18 11 -3 6 5 1 18 -10 13 -11 20 -14 16 -7 -4 7
-1 12 8 12 9 0 16 -6 16 -12 0 -9 3 -8 9 2 6 8 7 18 4 24 -3 5 -1 6 6 2 6 -4
9 -12 6 -17 -4 -5 -1 -9 4 -9 6 0 11 5 11 11 0 6 9 9 20 6 11 -3 20 -1 20 4 0
4 7 6 15 3 8 -4 15 -1 15 4 0 6 9 9 19 7 14 -3 18 1 14 11 -3 8 0 14 7 14 6 0
8 5 5 10 -3 6 -2 10 3 10 16 0 8 34 -11 48 -27 21 -56 22 -67 4 -8 -14 -10
-14 -10 -2 0 11 -3 10 -11 -4 -9 -15 -13 -16 -20 -5 -6 10 -9 10 -9 2 0 -7 -7
-10 -17 -6 -10 4 -14 2 -10 -4 7 -11 -22 -11 -40 0 -6 4 -23 8 -36 9 -16 1
-30 12 -38 28 -19 39 -19 49 3 45 17 -4 18 -2 6 12 -12 15 -11 15 9 5 12 -7
23 -15 25 -19 3 -5 4 -3 2 3 -1 5 9 10 21 10 13 0 22 -3 19 -7 -2 -4 6 -5 18
-1 16 4 19 2 13 -8 -5 -9 -4 -11 4 -6 9 6 9 11 -1 24 -11 13 -11 14 2 6 8 -5
38 -9 66 -10 28 -1 56 -4 63 -8 6 -4 11 -2 11 5 0 8 5 5 13 -5 12 -17 14 -17
28 1 13 16 13 17 -3 4 -11 -8 -18 -9 -18 -3 0 6 8 15 17 20 9 5 17 21 17 35 1
14 -1 24 -5 21 -4 -2 -10 3 -13 12 -4 10 -2 13 7 8 8 -6 8 -3 -1 9 -8 9 -11
20 -8 26 4 5 -1 17 -10 25 -9 9 -13 23 -10 31 3 8 0 17 -6 21 -7 5 -8 2 -3 -7
4 -8 -4 -2 -17 14 -14 15 -31 27 -37 27 -7 0 -10 4 -7 9 3 5 -9 8 -28 7 -23
-1 -32 3 -29 11 7 17 -9 17 -26 1 -11 -11 -13 -10 -7 0 9 16 -55 13 -66 -3 -5
-6 -8 -6 -8 3 0 13 -6 14 -28 5z m105 -108 c12 -4 24 -14 27 -22 3 -8 10 -12
15 -9 5 3 11 -3 14 -14 3 -11 1 -20 -5 -20 -5 0 -7 -4 -4 -9 8 -12 -47 -9 -56
4 -5 7 -8 6 -8 -1 0 -6 -21 -10 -53 -9 -62 2 -83 11 -68 29 6 7 8 16 5 19 -4
4 3 5 14 2 14 -2 19 1 16 9 -2 6 8 16 23 22 30 11 45 11 80 -1z"/>
<path d="M4313 2439 c-13 -5 -23 -11 -23 -14 0 -4 6 -3 13 1 7 5 7 1 -2 -10
-13 -15 -13 -19 0 -27 9 -6 10 -9 2 -9 -7 0 -10 -7 -7 -15 4 -8 11 -12 18 -8
6 3 8 3 4 -2 -4 -4 -2 -15 5 -23 10 -13 9 -15 -3 -8 -8 4 -6 0 4 -8 11 -9 20
-25 21 -37 1 -11 8 -24 15 -29 7 -4 10 -15 7 -24 -4 -10 -1 -16 9 -16 8 0 12
-4 9 -10 -3 -5 0 -10 7 -10 10 0 10 -2 -1 -9 -9 -6 -10 -11 -2 -15 6 -4 8 -12
5 -18 -5 -7 -2 -9 8 -6 11 5 14 -1 13 -23 -1 -15 2 -26 7 -23 7 5 12 -10 9
-28 0 -5 4 -8 11 -8 6 0 8 -3 5 -7 -4 -3 -1 -13 6 -21 12 -16 18 -94 6 -86 -4
2 -10 -3 -13 -12 -3 -8 -10 -12 -16 -9 -5 3 -18 2 -27 -4 -11 -6 -24 -6 -35 0
-13 7 -18 6 -18 -3 0 -9 -3 -9 -10 2 -7 11 -10 11 -10 2 0 -7 -3 -11 -7 -9 -5
3 -8 -10 -8 -29 0 -19 3 -34 8 -34 4 0 6 -3 5 -7 -2 -5 1 -9 6 -10 5 -1 12 -7
16 -13 6 -9 13 -9 31 1 21 11 22 10 12 -3 -11 -12 -9 -14 7 -13 11 1 23 5 27
10 5 4 1 5 -7 0 -9 -5 -12 -5 -7 1 12 12 30 12 40 -1 4 -7 10 -6 15 2 4 7 20
14 35 15 14 1 24 4 22 6 -2 2 7 14 21 27 13 12 24 25 24 27 0 3 8 23 17 44 9
22 16 42 15 47 -1 4 6 7 15 7 15 0 16 2 3 10 -12 8 -12 10 4 16 14 5 15 9 4
15 -11 7 -11 9 1 9 7 0 11 6 8 15 -4 8 -1 17 5 21 7 5 8 2 3 -6 -5 -8 -4 -11
3 -7 5 4 9 18 8 32 -2 13 1 22 5 19 5 -3 9 2 9 10 0 9 4 16 10 16 5 0 6 7 3
17 -5 12 -3 14 8 8 11 -7 11 -5 -1 10 -8 10 -10 16 -4 12 13 -8 27 19 18 34
-3 5 2 12 10 15 9 3 16 14 16 24 0 11 5 22 10 25 6 4 10 12 9 18 -3 26 2 38
13 31 7 -5 9 -2 5 9 -3 9 0 18 9 21 8 3 14 11 14 18 0 9 -3 8 -10 -2 -5 -8
-10 -10 -10 -5 0 6 5 16 12 23 9 9 9 12 -1 12 -11 0 -11 3 0 17 10 11 10 14 2
9 -7 -4 -13 -2 -13 3 0 6 -5 11 -11 11 -5 0 -8 -4 -4 -9 3 -5 1 -13 -5 -16 -6
-4 -9 -1 -8 6 3 11 -14 14 -53 10 -5 0 -7 -6 -3 -12 4 -7 0 -9 -14 -5 -17 6
-20 3 -17 -13 2 -12 0 -21 -6 -21 -5 0 -8 -6 -6 -12 1 -7 -4 -12 -11 -10 -10
2 -10 -2 -1 -19 8 -15 8 -19 0 -15 -6 4 -11 2 -11 -3 0 -20 -2 -26 -12 -38 -5
-7 -6 -18 -2 -24 4 -8 3 -9 -4 -5 -7 4 -13 1 -13 -8 -1 -9 -3 -20 -4 -26 -1
-5 -3 -14 -4 -20 0 -5 -9 -7 -18 -4 -15 5 -16 4 -3 -5 11 -8 12 -13 3 -22 -6
-6 -9 -19 -5 -28 5 -14 4 -14 -12 -2 -9 8 -15 20 -12 28 3 7 -1 13 -10 13 -8
0 -13 4 -9 9 3 5 -2 16 -10 24 -8 9 -15 27 -15 40 0 14 -4 27 -10 29 -5 2 -11
15 -12 31 -1 15 -6 27 -11 27 -4 0 -5 5 -2 10 3 6 1 10 -5 10 -6 0 -8 5 -5 10
3 6 0 10 -7 10 -9 0 -9 3 2 10 13 8 12 10 -3 10 -10 0 -15 5 -12 10 4 6 -5 10
-19 10 -14 0 -26 6 -26 13 0 8 -4 7 -10 -3 -9 -13 -10 -13 -10 0 0 12 -2 13
-9 1 -5 -7 -10 -9 -12 -3 -3 6 -13 6 -26 1z"/>
<path d="M1906 1968 c3 -5 10 -6 15 -3 13 9 11 12 -6 12 -8 0 -12 -4 -9 -9z"/>
</g>
</svg>
